<svg xmlns="http://www.w3.org/2000/svg" viewBox="0 0 64 64">
  <rect width="64" height="64" rx="14" fill="#F7931A"/>
  <path d="M41.5 27.5c.7-4.5-2.7-6.9-7.4-8.5l1.5-6-3.7-.9-1.5 5.8-2.9-.7 1.5-5.8-3.7-.9-1.5 6-7.3-1.8-.9 3.9s2.7.6 2.7.7c1.5.4 1.7 1.4 1.7 2.1l-4.1 16.4c-.2.5-.7 1.2-1.8.9 0 .1-2.7-.7-2.7-.7l-1.8 4.2 6.9 1.7-1.5 6.1 3.7.9 1.5-6.1 2.9.7-1.5 6 3.7.9 1.5-6c6.2 1.2 10.9.7 12.8-4.9 1.6-4.5-.1-7.1-3.3-8.8 2.3-.6 4.1-2.2 4.6-5.1zm-8.3 11.6c-1.1 4.5-8.8 2.1-11.3 1.5l2-8c2.5.6 10.5 1.8 9.3 6.5zm1.1-11.7c-1 4.1-7.4 2-9.5 1.5l1.8-7.3c2.1.5 8.8 1.4 7.7 5.8z" fill="white"/>
</svg>
