<svg xmlns="http://www.w3.org/2000/svg" viewBox="0 0 32 32">
  <circle cx="16" cy="16" r="16" fill="#00C08B"/>
  <path fill="#fff" d="M20.19 9h-1.502a.844.844 0 0 0-.712.39l-3.554 5.523a.211.211 0 0 1-.357-.022l-1.428-2.764A1.266 1.266 0 0 0 11.508 11H10v10h2.12c.323 0 .618-.175.78-.457l1.347-2.364a.21.21 0 0 1 .366.003l1.332 2.361c.163.288.463.457.79.457H20.19C21.19 21 22 20.105 22 19V11c0-1.105-.81-2-1.81-2zm-.335 8.527-3.16-4.863a.21.21 0 0 0-.353-.005l-1.056 1.59V12.21l3.16 4.863V20h1.41v-2.473z"/>
</svg>
