<svg xmlns="http://www.w3.org/2000/svg" viewBox="0 0 32 32">
  <circle cx="16" cy="16" r="16" fill="#2775CA"/>
  <path fill="#fff" d="M20 17.6c0-2-1.2-2.7-3.6-3-1.8-.3-2.2-.7-2.2-1.5s.6-1.4 1.8-1.4c1.1 0 1.7.4 2 1.3.1.2.3.4.5.4h1.1c.3 0 .5-.2.5-.5v-.1c-.3-1.5-1.5-2.6-3-2.8V8.5c0-.3-.2-.5-.5-.5H15c-.3 0-.5.2-.5.5V10c-1.8.3-3 1.5-3 3 0 1.9 1.2 2.6 3.5 3 1.7.3 2.3.7 2.3 1.6s-.7 1.5-2 1.5c-1.5 0-2-.6-2.2-1.5-.1-.3-.3-.4-.5-.4h-1.1c-.3 0-.5.2-.5.5v.1c.3 1.6 1.4 2.8 3 3.1v1.5c0 .3.2.5.5.5h1.5c.3 0 .5-.2.5-.5v-1.5c1.8-.3 3.1-1.6 3-3.3z"/>
</svg>
